<mxfile host="app.diagrams.net" agent="Mozilla/5.0 (Windows NT 10.0; Win64; x64) AppleWebKit/537.36 (KHTML, like Gecko) Chrome/129.0.0.0 Safari/537.36 Edg/129.0.0.0" version="24.7.17">
  <diagram name="Page-1" id="b9EgZ2ABsAyf0z_zB-ob">
    <mxGraphModel dx="786" dy="457" grid="1" gridSize="10" guides="1" tooltips="1" connect="1" arrows="1" fold="1" page="1" pageScale="1" pageWidth="850" pageHeight="1100" math="0" shadow="0">
      <root>
        <mxCell id="0" />
        <mxCell id="1" parent="0" />
        <mxCell id="vU4Al4OIlwPkarX8NX8T-4" value="" style="edgeStyle=orthogonalEdgeStyle;rounded=0;orthogonalLoop=1;jettySize=auto;html=1;" parent="1" source="vU4Al4OIlwPkarX8NX8T-2" edge="1">
          <mxGeometry relative="1" as="geometry">
            <mxPoint x="260" y="480" as="targetPoint" />
          </mxGeometry>
        </mxCell>
        <mxCell id="vU4Al4OIlwPkarX8NX8T-2" value="&lt;span style=&quot;text-align: left;&quot;&gt;&amp;nbsp;Start&amp;nbsp; &amp;nbsp; &amp;nbsp;&lt;/span&gt;" style="strokeWidth=2;html=1;shape=mxgraph.flowchart.start_1;whiteSpace=wrap;" parent="1" vertex="1">
          <mxGeometry x="210" y="390" width="100" height="60" as="geometry" />
        </mxCell>
        <mxCell id="V0LDAQZ5q9o_A2dhZnR5-2" value="&lt;span style=&quot;text-align: left;&quot;&gt;Go to Pet Store Homepage&amp;nbsp;&lt;/span&gt;" style="rounded=0;whiteSpace=wrap;html=1;" parent="1" vertex="1">
          <mxGeometry x="200" y="480" width="120" height="60" as="geometry" />
        </mxCell>
        <mxCell id="V0LDAQZ5q9o_A2dhZnR5-3" value="&lt;span style=&quot;text-align: left;&quot;&gt;&amp;nbsp;Type &quot;dog food&quot; in Search Bar&amp;nbsp;&lt;/span&gt;" style="rounded=0;whiteSpace=wrap;html=1;" parent="1" vertex="1">
          <mxGeometry x="210" y="580" width="120" height="60" as="geometry" />
        </mxCell>
        <mxCell id="V0LDAQZ5q9o_A2dhZnR5-4" style="edgeStyle=orthogonalEdgeStyle;rounded=0;orthogonalLoop=1;jettySize=auto;html=1;exitX=0.5;exitY=1;exitDx=0;exitDy=0;entryX=0.433;entryY=-0.011;entryDx=0;entryDy=0;entryPerimeter=0;" parent="1" source="V0LDAQZ5q9o_A2dhZnR5-2" target="V0LDAQZ5q9o_A2dhZnR5-3" edge="1">
          <mxGeometry relative="1" as="geometry" />
        </mxCell>
        <mxCell id="V0LDAQZ5q9o_A2dhZnR5-5" value="&lt;span style=&quot;text-align: left;&quot;&gt;&amp;nbsp;Press &quot;Search&quot; Button&lt;/span&gt;" style="rounded=0;whiteSpace=wrap;html=1;" parent="1" vertex="1">
          <mxGeometry x="220" y="680" width="120" height="60" as="geometry" />
        </mxCell>
        <mxCell id="V0LDAQZ5q9o_A2dhZnR5-6" style="edgeStyle=orthogonalEdgeStyle;rounded=0;orthogonalLoop=1;jettySize=auto;html=1;exitX=0.5;exitY=1;exitDx=0;exitDy=0;entryX=0.411;entryY=-0.022;entryDx=0;entryDy=0;entryPerimeter=0;" parent="1" source="V0LDAQZ5q9o_A2dhZnR5-3" target="V0LDAQZ5q9o_A2dhZnR5-5" edge="1">
          <mxGeometry relative="1" as="geometry" />
        </mxCell>
        <mxCell id="V0LDAQZ5q9o_A2dhZnR5-11" style="edgeStyle=orthogonalEdgeStyle;rounded=0;orthogonalLoop=1;jettySize=auto;html=1;" parent="1" source="V0LDAQZ5q9o_A2dhZnR5-9" edge="1">
          <mxGeometry relative="1" as="geometry">
            <mxPoint x="200" y="940" as="targetPoint" />
          </mxGeometry>
        </mxCell>
        <mxCell id="V0LDAQZ5q9o_A2dhZnR5-12" style="edgeStyle=orthogonalEdgeStyle;rounded=0;orthogonalLoop=1;jettySize=auto;html=1;" parent="1" source="V0LDAQZ5q9o_A2dhZnR5-9" edge="1">
          <mxGeometry relative="1" as="geometry">
            <mxPoint x="390" y="930" as="targetPoint" />
          </mxGeometry>
        </mxCell>
        <mxCell id="V0LDAQZ5q9o_A2dhZnR5-9" value="&lt;span style=&quot;text-align: left;&quot;&gt;&amp;nbsp;Are Results Related to &quot;Dog&amp;nbsp; &amp;nbsp;|&lt;/span&gt;&lt;br style=&quot;padding: 0px; margin: 0px; text-align: left;&quot;&gt;&lt;span style=&quot;text-align: left;&quot;&gt;&amp;nbsp;Food&quot;?&amp;nbsp;&lt;/span&gt;" style="strokeWidth=2;html=1;shape=mxgraph.flowchart.decision;whiteSpace=wrap;" parent="1" vertex="1">
          <mxGeometry x="230" y="770" width="100" height="100" as="geometry" />
        </mxCell>
        <mxCell id="V0LDAQZ5q9o_A2dhZnR5-10" style="edgeStyle=orthogonalEdgeStyle;rounded=0;orthogonalLoop=1;jettySize=auto;html=1;entryX=0.5;entryY=0;entryDx=0;entryDy=0;entryPerimeter=0;" parent="1" source="V0LDAQZ5q9o_A2dhZnR5-5" target="V0LDAQZ5q9o_A2dhZnR5-9" edge="1">
          <mxGeometry relative="1" as="geometry" />
        </mxCell>
        <mxCell id="V0LDAQZ5q9o_A2dhZnR5-13" value="&lt;br&gt;&lt;span style=&quot;color: rgb(0, 0, 0); font-family: Helvetica; font-size: 12px; font-style: normal; font-variant-ligatures: normal; font-variant-caps: normal; font-weight: 400; letter-spacing: normal; orphans: 2; text-align: left; text-indent: 0px; text-transform: none; widows: 2; word-spacing: 0px; -webkit-text-stroke-width: 0px; white-space: normal; background-color: rgb(251, 251, 251); text-decoration-thickness: initial; text-decoration-style: initial; text-decoration-color: initial; display: inline !important; float: none;&quot;&gt;Yes, Display Dog&lt;/span&gt;&lt;div&gt;&lt;div style=&quot;text-align: left;&quot;&gt;Food Product&lt;/div&gt;&lt;br&gt;&lt;/div&gt;" style="rounded=1;whiteSpace=wrap;html=1;" parent="1" vertex="1">
          <mxGeometry x="150" y="880" width="120" height="60" as="geometry" />
        </mxCell>
        <mxCell id="V0LDAQZ5q9o_A2dhZnR5-14" value="No Show Error &quot;No product&amp;nbsp; found" style="rounded=1;whiteSpace=wrap;html=1;" parent="1" vertex="1">
          <mxGeometry x="320" y="880" width="120" height="60" as="geometry" />
        </mxCell>
        <mxCell id="V0LDAQZ5q9o_A2dhZnR5-17" value="" style="edgeStyle=orthogonalEdgeStyle;rounded=0;orthogonalLoop=1;jettySize=auto;html=1;" parent="1" source="V0LDAQZ5q9o_A2dhZnR5-13" target="V0LDAQZ5q9o_A2dhZnR5-16" edge="1">
          <mxGeometry relative="1" as="geometry">
            <mxPoint x="210" y="1000" as="targetPoint" />
            <mxPoint x="210" y="940" as="sourcePoint" />
          </mxGeometry>
        </mxCell>
        <mxCell id="V0LDAQZ5q9o_A2dhZnR5-19" style="edgeStyle=orthogonalEdgeStyle;rounded=0;orthogonalLoop=1;jettySize=auto;html=1;exitX=0.5;exitY=1;exitDx=0;exitDy=0;" parent="1" source="V0LDAQZ5q9o_A2dhZnR5-16" edge="1">
          <mxGeometry relative="1" as="geometry">
            <mxPoint x="220" y="1050" as="targetPoint" />
          </mxGeometry>
        </mxCell>
        <mxCell id="V0LDAQZ5q9o_A2dhZnR5-16" value="&lt;span style=&quot;text-align: left;&quot;&gt;Click on any Product&amp;nbsp;&amp;nbsp;&lt;/span&gt;" style="rounded=0;whiteSpace=wrap;html=1;" parent="1" vertex="1">
          <mxGeometry x="160" y="960" width="120" height="60" as="geometry" />
        </mxCell>
        <mxCell id="V0LDAQZ5q9o_A2dhZnR5-24" style="edgeStyle=orthogonalEdgeStyle;rounded=0;orthogonalLoop=1;jettySize=auto;html=1;exitX=0.5;exitY=1;exitDx=0;exitDy=0;" parent="1" source="V0LDAQZ5q9o_A2dhZnR5-20" target="V0LDAQZ5q9o_A2dhZnR5-22" edge="1">
          <mxGeometry relative="1" as="geometry" />
        </mxCell>
        <mxCell id="V0LDAQZ5q9o_A2dhZnR5-20" value="&lt;span style=&quot;text-align: left;&quot;&gt;Verify Correct Product Details |&lt;/span&gt;&lt;br style=&quot;padding: 0px; margin: 0px; text-align: left;&quot;&gt;&lt;span style=&quot;text-align: left;&quot;&gt;&amp;nbsp;|(Name, Image, Price, etc.)&lt;/span&gt;" style="rounded=0;whiteSpace=wrap;html=1;" parent="1" vertex="1">
          <mxGeometry x="160" y="1050" width="120" height="60" as="geometry" />
        </mxCell>
        <mxCell id="V0LDAQZ5q9o_A2dhZnR5-22" value="End" style="rounded=0;whiteSpace=wrap;html=1;" parent="1" vertex="1">
          <mxGeometry x="160" y="1140" width="120" height="60" as="geometry" />
        </mxCell>
      </root>
    </mxGraphModel>
  </diagram>
</mxfile>
